<?xml version="1.0" encoding="UTF-8"?>
<svg id="Layer_1" data-name="Layer 1" xmlns="http://www.w3.org/2000/svg" viewBox="0 0 1200 1200">
  <defs>
    <style>
      .cls-1 {
        letter-spacing: .04em;
      }

      .cls-2 {
        letter-spacing: .04em;
      }

      .cls-3 {
        fill: #fff;
      }

      .cls-4 {
        fill: #ffd300;
      }

      .cls-4, .cls-5 {
        fill-rule: evenodd;
      }

      .cls-5 {
        fill: #bfc0c2;
      }

      .cls-6 {
        fill: #a7a9ac;
      }

      .cls-7 {
        fill: #272c36;
        font-family: MinionConceptRoman-Bold, 'Minion Variable Concept';
        font-size: 201.56px;
        font-variation-settings: 'wght' 700, 'opsz' 11;
        font-weight: 700;
      }

      .cls-8 {
        letter-spacing: .05em;
      }
    </style>
  </defs>
  <rect class="cls-3" x=".17" y="-4.46" width="1200" height="1200"/>
  <g>
    <path class="cls-6" d="M271.78,663.21c0,4.63-3.29,8.65-9.22,8.65h-3.75v6.62c0,1.3-.96,2.29-2.29,2.29s-2.29-1-2.29-2.29v-21.65c0-1.22.96-2.26,2.26-2.26h6.08c5.93,0,9.22,4.09,9.22,8.65ZM267.08,663.17c0-2.6-1.76-4.51-4.97-4.51h-3.29v9.14h3.25c3.25,0,5.01-1.95,5.01-4.63Z"/>
    <path class="cls-6" d="M293.59,665.2c0,1.3-1,2.22-2.18,2.22-1.76,0-3.56.54-4.9,2.64v8.45c0,1.22-1,2.26-2.18,2.26s-2.18-1.03-2.18-2.26v-13.04c0-1.22.96-2.18,2.18-2.18s2.18.96,2.18,2.18v.96c1.42-2.41,3.14-3.29,4.9-3.29,1.3,0,2.18.88,2.18,2.07Z"/>
    <path class="cls-6" d="M301.78,671.97c0-5.2,3.94-8.91,9.03-8.91s9.07,3.71,9.07,8.91-3.94,8.99-9.07,8.99-9.03-3.79-9.03-8.99ZM315.44,671.97c0-3.29-2.14-5.13-4.63-5.13s-4.59,1.84-4.59,5.13,2.14,5.16,4.59,5.16,4.63-1.91,4.63-5.16Z"/>
    <path class="cls-6" d="M347.16,678.59c0,1.22-.96,2.18-2.14,2.18s-2.14-.96-2.14-2.18v-.11c-1.22,1.49-3.02,2.49-5.01,2.49-4.82,0-8.11-4.13-8.11-8.95s3.29-8.95,8.11-8.95c2.26,0,3.86.84,4.9,1.8v-9.33c0-1.19.96-2.22,2.18-2.22s2.18,1,2.18,2.22l.04,23.07ZM342.76,674.88v-5.89c-.8-1.26-2.26-2.07-3.9-2.07-2.49,0-4.63,2.07-4.63,5.09s2.14,5.05,4.63,5.05c1.65,0,3.02-.84,3.9-2.18Z"/>
    <path class="cls-6" d="M374.66,665.47v13.04c0,1.22-.96,2.18-2.18,2.18s-2.18-.96-2.18-2.18v-.23c-1.38,1.64-3.17,2.64-5.36,2.64-3.25,0-6.01-2.18-6.01-6.16v-9.3c0-1.22,1-2.26,2.14-2.26s2.22,1.03,2.22,2.26v8.38c0,2.03,1.11,3.29,3.06,3.29,1.61,0,3.02-.96,3.94-2.68v-8.99c0-1.22,1-2.26,2.18-2.26s2.18,1.03,2.18,2.26Z"/>
    <path class="cls-6" d="M385.53,672.01c0-5.32,3.9-8.99,9.1-8.99,1.87,0,3.67.54,4.74,1.3.69.46,1.07,1.11,1.07,1.76,0,1.07-.73,1.95-1.87,1.95-.57,0-1.07-.19-1.49-.38-.54-.27-1.38-.57-2.33-.57-2.52,0-4.78,1.8-4.78,4.94s2.14,4.93,4.9,4.93c1.07,0,1.68-.23,2.49-.65.42-.19.84-.31,1.26-.31,1.07,0,1.87.69,1.87,1.8,0,.92-.54,1.53-1.38,1.99-1.15.73-2.79,1.19-4.51,1.19-5.24,0-9.07-3.75-9.07-8.95Z"/>
    <path class="cls-6" d="M409.91,672.01c0-5.32,3.9-8.99,9.1-8.99,1.88,0,3.67.54,4.74,1.3.69.46,1.07,1.11,1.07,1.76,0,1.07-.73,1.95-1.87,1.95-.57,0-1.07-.19-1.49-.38-.54-.27-1.38-.57-2.33-.57-2.53,0-4.78,1.8-4.78,4.94s2.14,4.93,4.9,4.93c1.07,0,1.68-.23,2.49-.65.42-.19.84-.31,1.26-.31,1.07,0,1.88.69,1.88,1.8,0,.92-.54,1.53-1.38,1.99-1.15.73-2.79,1.19-4.51,1.19-5.24,0-9.07-3.75-9.07-8.95Z"/>
    <path class="cls-6" d="M435.2,657.28c0-1.38,1.07-2.45,2.49-2.45s2.49,1.07,2.49,2.45-1.11,2.45-2.49,2.45-2.49-1.07-2.49-2.45ZM435.5,678.51v-13.04c0-1.22.99-2.18,2.18-2.18s2.18.96,2.18,2.18v13.04c0,1.22-.96,2.26-2.18,2.26s-2.18-1.03-2.18-2.26Z"/>
    <path class="cls-6" d="M450.73,671.97c0-5.2,3.94-8.91,9.03-8.91s9.07,3.71,9.07,8.91-3.94,8.99-9.07,8.99-9.03-3.79-9.03-8.99ZM464.39,671.97c0-3.29-2.14-5.13-4.63-5.13s-4.59,1.84-4.59,5.13,2.14,5.16,4.59,5.16,4.63-1.91,4.63-5.16ZM458.8,658.54l1.65-3.1c.42-.8,1.03-1.11,1.76-1.11.99,0,1.72.69,1.72,1.68,0,.42-.15.88-.5,1.26l-2.49,2.91c-.46.54-.84.8-1.42.8-.65,0-1.19-.46-1.19-1.19,0-.42.19-.8.46-1.26Z"/>
    <path class="cls-6" d="M495.42,669.22v9.3c0,1.22-1,2.26-2.14,2.26s-2.22-1.03-2.22-2.26v-8.38c0-2.03-1.11-3.29-3.06-3.29-1.61,0-3.02.96-3.94,2.68v8.99c0,1.22-1,2.26-2.18,2.26s-2.18-1.03-2.18-2.26v-13.04c0-1.22.96-2.18,2.18-2.18s2.18.96,2.18,2.18v.23c1.38-1.64,3.17-2.64,5.36-2.64,3.25,0,6.01,2.18,6.01,6.16Z"/>
    <path class="cls-6" d="M538.5,665.35c0,.38-.08.73-.27,1.11l-10.37,22.22c-.54,1.15-1.34,1.53-2.14,1.53-1.11,0-2.03-.99-2.03-2.07,0-.38.08-.76.27-1.15l3.44-7.04-6.01-13.46c-.19-.42-.27-.77-.27-1.11,0-1.15.96-2.1,2.18-2.1.76,0,1.61.38,2.14,1.53,1.34,3.1,3.14,7.54,4.36,10.75,1.3-3.44,3.1-7.5,4.51-10.79.54-1.15,1.34-1.49,2.14-1.49,1.07,0,2.03.96,2.03,2.07Z"/>
    <path class="cls-6" d="M587.09,667.65c0,6.89-4.93,12.93-13.81,12.93h-6.12c-1.26,0-2.22-.99-2.22-2.26v-21.46c0-1.3.96-2.29,2.22-2.29h6.12c8.84,0,13.81,5.93,13.81,13.08ZM582.3,667.65c0-5.24-3.4-8.99-9.18-8.99h-3.6v17.83h3.6c5.7,0,9.18-3.71,9.18-8.84Z"/>
    <path class="cls-6" d="M597.77,657.28c0-1.38,1.07-2.45,2.49-2.45s2.49,1.07,2.49,2.45-1.11,2.45-2.49,2.45-2.49-1.07-2.49-2.45ZM598.07,678.51v-13.04c0-1.22,1-2.18,2.18-2.18s2.18.96,2.18,2.18v13.04c0,1.22-.96,2.26-2.18,2.26s-2.18-1.03-2.18-2.26Z"/>
    <path class="cls-6" d="M614.56,679.66c-.8-.42-1.3-.96-1.3-1.84,0-1.15.88-1.76,1.68-1.76.65,0,1.22.31,1.95.57.88.38,2.07.73,3.25.73,1.91,0,2.75-.65,2.75-1.53,0-1.07-1.3-1.53-3.71-2.3-2.95-.92-5.62-2.07-5.62-5.32,0-2.95,2.29-5.16,6.62-5.16,1.87,0,3.71.46,4.71.88.76.27,1.53.8,1.53,1.84,0,1.15-.77,1.84-1.68,1.84-.54,0-1.11-.27-1.76-.46-.88-.27-1.84-.5-2.83-.5-1.68,0-2.45.61-2.45,1.45,0,1.03,1.07,1.42,3.94,2.33,2.95.96,5.36,2.07,5.36,5.17s-2.41,5.36-6.73,5.36c-2.6,0-4.71-.77-5.7-1.3Z"/>
    <path class="cls-6" d="M653.32,670.63c0,.65-.12,1.15-.5,1.61-.42.5-1.07.61-2.07.61h-9.64c.46,2.79,2.6,4.29,5.47,4.29,1.07,0,2.03-.27,2.72-.5.61-.15.96-.27,1.38-.27.99,0,1.72.8,1.72,1.76,0,.73-.42,1.41-1.26,1.8-1.26.61-2.98,1.03-4.9,1.03-5.36,0-9.41-3.56-9.41-8.99,0-5.13,3.63-8.91,8.72-8.91s7.77,3.63,7.77,7.57ZM649.41,670.06c-.04-1.95-1.53-3.6-3.94-3.6-2.22,0-3.75,1.34-4.25,3.6h8.19Z"/>
    <path class="cls-6" d="M679.79,669.22v9.3c0,1.22-.99,2.26-2.14,2.26s-2.22-1.03-2.22-2.26v-8.38c0-2.03-1.11-3.29-3.06-3.29-1.61,0-3.02.96-3.94,2.68v8.99c0,1.22-.99,2.26-2.18,2.26s-2.18-1.03-2.18-2.26v-13.04c0-1.22.96-2.18,2.18-2.18s2.18.96,2.18,2.18v.23c1.38-1.64,3.18-2.64,5.36-2.64,3.25,0,6.01,2.18,6.01,6.16ZM666.1,658.89c0-1.53,1.57-3.75,3.83-3.75,2.37,0,3.4,2.18,4.74,2.18.61,0,1.03-.46,1.38-1.19.23-.46.54-.92,1.19-.92s1.15.38,1.15,1.26c0,1.57-1.61,3.75-3.86,3.75-2.37,0-3.4-2.18-4.74-2.18-.61,0-1,.42-1.38,1.22-.19.42-.54.88-1.15.88-.65,0-1.15-.38-1.15-1.26Z"/>
    <path class="cls-6" d="M690.55,671.97c0-5.2,3.94-8.91,9.03-8.91s9.07,3.71,9.07,8.91-3.94,8.99-9.07,8.99-9.03-3.79-9.03-8.99ZM704.2,671.97c0-3.29-2.14-5.13-4.63-5.13s-4.59,1.84-4.59,5.13,2.14,5.16,4.59,5.16,4.63-1.91,4.63-5.16Z"/>
    <path class="cls-6" d="M753.63,656.63c0,1.15-.84,2.03-1.99,2.03h-6.5v19.82c0,1.26-.99,2.29-2.29,2.29s-2.3-1.03-2.3-2.29v-19.82h-6.46c-1.19,0-2.03-.88-2.03-2.03s.84-2.07,1.99-2.07h17.63c1.11,0,1.95.88,1.95,2.07Z"/>
    <path class="cls-6" d="M774.99,670.63c0,.65-.12,1.15-.5,1.61-.42.5-1.07.61-2.07.61h-9.64c.46,2.79,2.6,4.29,5.47,4.29,1.07,0,2.03-.27,2.71-.5.61-.15.96-.27,1.38-.27.99,0,1.72.8,1.72,1.76,0,.73-.42,1.41-1.26,1.8-1.26.61-2.98,1.03-4.9,1.03-5.36,0-9.41-3.56-9.41-8.99,0-5.13,3.63-8.91,8.72-8.91s7.77,3.63,7.77,7.57ZM771.08,670.06c-.04-1.95-1.53-3.6-3.94-3.6-2.22,0-3.75,1.34-4.25,3.6h8.19Z"/>
    <path class="cls-6" d="M799.47,677.17c.42.46.61.96.61,1.49,0,1.15-.96,2.1-2.03,2.1-.65,0-1.22-.31-1.65-.84l-4.32-5.16-4.32,5.24c-.38.5-.92.77-1.57.77-1.03,0-1.99-.88-1.99-1.99,0-.5.23-1,.65-1.49l4.63-5.36-4.44-5.13c-.42-.46-.57-.99-.57-1.49,0-1.11.92-2.03,1.99-2.03.61,0,1.19.23,1.61.77l4.17,5.09,4.29-5.13c.38-.46.92-.73,1.57-.73,1.03,0,1.99.92,1.99,1.95,0,.54-.23,1-.65,1.49l-4.59,5.28,4.63,5.16Z"/>
    <path class="cls-6" d="M823.35,678.17c0,.8-.5,1.34-1.34,1.76-.77.42-2.22.96-4.17.96-4.02,0-5.97-2.03-5.97-5.43v-8.34h-1.53c-.77,0-1.38-.54-1.38-1.26,0-.46.19-.77.69-1.22l4.02-3.44c.46-.42.77-.69,1.3-.69.65,0,1.26.46,1.26,1.53v1.38h4.97c1,0,1.88.8,1.88,1.87s-.88,1.84-1.88,1.84h-4.97v7.61c0,1.45.84,2.26,2.22,2.26.8,0,1.42-.19,1.91-.38.38-.15.77-.27,1.19-.31,1.07-.04,1.8.88,1.8,1.87Z"/>
    <path class="cls-6" d="M833.03,657.28c0-1.38,1.07-2.45,2.49-2.45s2.49,1.07,2.49,2.45-1.11,2.45-2.49,2.45-2.49-1.07-2.49-2.45ZM833.34,678.51v-13.04c0-1.22.99-2.18,2.18-2.18s2.18.96,2.18,2.18v13.04c0,1.22-.96,2.26-2.18,2.26s-2.18-1.03-2.18-2.26Z"/>
    <path class="cls-6" d="M849.6,678.51v-22.99c0-1.22,1-2.22,2.18-2.22s2.18,1,2.18,2.22v22.99c0,1.22-.95,2.26-2.14,2.26s-2.22-1.03-2.22-2.26Z"/>
    <path class="cls-6" d="M881.73,678.67c-.8-.54-1.41-1.22-1.41-2.26,0-1.15.92-2.03,2.03-2.03.69,0,1.26.31,1.95.8,1.26.84,2.91,1.61,5.09,1.61,2.45,0,4.09-1.34,4.09-3.29,0-2.22-2.29-3.02-5.01-4.21-4.25-1.76-7.08-3.67-7.08-7.77s3.21-7.34,8.46-7.34c2.52,0,4.36.5,5.62,1.19.99.5,1.72,1.19,1.72,2.18s-.73,2.03-1.88,2.03c-.61,0-1.22-.27-1.61-.42-1.03-.42-2.22-.88-3.83-.88-2.56,0-3.94,1.38-3.94,2.98,0,2.26,2.6,3.1,5.32,4.25,3.6,1.49,6.77,3.33,6.77,7.73,0,4.9-3.94,7.65-8.88,7.65-2.49,0-5.16-.65-7.42-2.22Z"/>
    <path class="cls-6" d="M908.29,678.01c0-1.57,1.3-2.87,2.83-2.87s2.87,1.3,2.87,2.87-1.3,2.83-2.87,2.83-2.83-1.3-2.83-2.83Z"/>
    <path class="cls-6" d="M946.77,678.59c0,1.19-.92,2.14-2.1,2.14-1.07,0-1.72-.54-2.1-1.53l-1.84-4.74h-11.29l-1.84,4.78c-.38.96-1.15,1.49-2.07,1.49-1.22,0-2.1-.96-2.1-2.14,0-.34.08-.69.23-1.11l8.3-20.7c.65-1.68,1.87-2.41,3.21-2.41s2.52.77,3.17,2.41l8.15,20.66c.19.5.27.84.27,1.15ZM939.24,670.59l-4.09-10.56h-.12l-4.09,10.56h8.3Z"/>
  </g>
  <text class="cls-7" transform="translate(142.3 614.59)"><tspan class="cls-8" x="0" y="0">P</tspan><tspan class="cls-1" x="133.43" y="0" xml:space="preserve">R   </tspan><tspan class="cls-2" x="430.72" y="0">D</tspan><tspan class="cls-1" x="593.98" y="0">ISA</tspan></text>
  <g>
    <polygon class="cls-4" points="544.75 500.95 544.75 514.14 556.15 520.65 556.15 507.63 544.75 500.95"/>
    <polygon class="cls-4" points="474.72 493.13 443.78 511.05 443.78 497.85 474.72 479.94 522.43 507.63 522.43 520.65 474.72 493.13"/>
    <polygon class="cls-5" points="491.49 619.34 502.89 612.83 455.18 585.31 455.18 530.1 446.55 535.14 443.78 536.61 443.78 591.82 491.49 619.34"/>
    <polygon class="cls-5" points="544.75 520.33 544.75 556.16 497.03 583.67 508.43 590.19 556.15 562.67 556.15 527 544.75 520.33"/>
    <polygon class="cls-5" points="527.97 504.37 527.97 559.57 539.37 552.9 539.37 497.85 491.49 470.33 480.1 476.85 527.97 504.37"/>
    <polygon class="cls-5" points="474.72 499.48 427.01 527 427.01 582.05 438.41 588.72 438.41 533.52 486.12 506 474.72 499.48"/>
    <polygon class="cls-4" points="508.43 609.73 556.15 582.05 556.15 569.02 508.43 596.54 460.71 569.02 460.71 582.05 508.43 609.73"/>
    <polygon class="cls-4" points="438.41 514.14 427.01 520.65 427.01 507.63 438.41 500.95 438.41 514.14"/>
  </g>
</svg>