<?xml version="1.0" encoding="UTF-8"?>
<svg id="Layer_1" data-name="Layer 1" xmlns="http://www.w3.org/2000/svg" viewBox="0 0 1200 1200">
  <defs>
    <style>
      .cls-1 {
        fill: #fff;
      }

      .cls-2 {
        fill: #ffd300;
      }

      .cls-2, .cls-3 {
        fill-rule: evenodd;
      }

      .cls-3 {
        fill: #bfc0c2;
      }
    </style>
  </defs>
  <rect class="cls-1" x=".17" width="1199.83" height="1199.83"/>
  <g>
    <polygon class="cls-2" points="822.39 401.17 822.39 455.49 869.35 482.32 869.35 428.67 822.39 401.17"/>
    <polygon class="cls-2" points="533.99 368.96 406.56 442.76 406.56 388.42 533.99 314.64 730.5 428.67 730.5 482.32 533.99 368.96"/>
    <polygon class="cls-3" points="603.07 888.76 650.02 861.93 453.5 748.6 453.5 521.23 417.96 542 406.56 548.06 406.56 775.42 603.07 888.76"/>
    <polygon class="cls-3" points="822.39 480.98 822.39 628.54 625.88 741.87 672.83 768.7 869.35 655.36 869.35 508.48 822.39 480.98"/>
    <polygon class="cls-3" points="753.31 415.24 753.31 642.61 800.26 615.11 800.26 388.42 603.07 275.08 556.13 301.9 753.31 415.24"/>
    <polygon class="cls-3" points="533.99 395.12 337.49 508.48 337.49 735.17 384.43 762.67 384.43 535.3 580.93 421.97 533.99 395.12"/>
    <polygon class="cls-2" points="672.83 849.2 869.35 735.17 869.35 681.52 672.83 794.86 476.31 681.52 476.31 735.17 672.83 849.2"/>
    <polygon class="cls-2" points="384.43 455.49 337.49 482.32 337.49 428.67 384.43 401.17 384.43 455.49"/>
  </g>
</svg>