<?xml version="1.0" encoding="UTF-8"?>
<svg id="Layer_1" data-name="Layer 1" xmlns="http://www.w3.org/2000/svg" viewBox="0 0 1200 1200">
  <defs>
    <style>
      .cls-1 {
        letter-spacing: .04em;
      }

      .cls-2 {
        letter-spacing: .05em;
      }

      .cls-3 {
        fill: #fff;
      }

      .cls-4 {
        letter-spacing: .04em;
      }

      .cls-5 {
        fill: #ffd300;
      }

      .cls-5, .cls-6 {
        fill-rule: evenodd;
      }

      .cls-6 {
        fill: #bfc0c2;
      }

      .cls-7 {
        fill: #a7a9ac;
      }

      .cls-8 {
        letter-spacing: .05em;
      }

      .cls-9 {
        fill: #272c36;
        font-family: MinionConceptRoman-Bold, 'Minion Variable Concept';
        font-size: 158.87px;
        font-variation-settings: 'wght' 700, 'opsz' 11;
        font-weight: 700;
      }
    </style>
  </defs>
  <rect class="cls-3" x=".17" y="-.89" width="1199.83" height="1199.83"/>
  <g>
    <path class="cls-7" d="M354.77,866.28c0,3.58-2.54,6.69-7.13,6.69h-2.9v5.12c0,1.01-.74,1.77-1.78,1.77s-1.78-.77-1.78-1.77v-16.75c0-.95.74-1.75,1.75-1.75h4.7c4.59,0,7.13,3.17,7.13,6.69ZM351.13,866.25c0-2.01-1.36-3.49-3.85-3.49h-2.54v7.07h2.51c2.52,0,3.88-1.51,3.88-3.58Z"/>
    <path class="cls-7" d="M371.64,867.82c0,1.01-.77,1.72-1.69,1.72-1.36,0-2.75.41-3.79,2.04v6.54c0,.95-.77,1.75-1.69,1.75s-1.69-.8-1.69-1.75v-10.09c0-.95.74-1.69,1.69-1.69s1.69.74,1.69,1.69v.74c1.09-1.86,2.43-2.54,3.79-2.54,1.01,0,1.69.68,1.69,1.6Z"/>
    <path class="cls-7" d="M377.97,873.06c0-4.02,3.05-6.89,6.98-6.89s7.01,2.87,7.01,6.89-3.05,6.95-7.01,6.95-6.98-2.93-6.98-6.95ZM388.53,873.06c0-2.54-1.66-3.96-3.58-3.96s-3.55,1.42-3.55,3.96,1.66,3.99,3.55,3.99,3.58-1.48,3.58-3.99Z"/>
    <path class="cls-7" d="M413.06,878.18c0,.95-.74,1.69-1.66,1.69s-1.66-.74-1.66-1.69v-.09c-.95,1.15-2.34,1.92-3.88,1.92-3.73,0-6.27-3.2-6.27-6.92s2.54-6.92,6.27-6.92c1.75,0,2.99.65,3.79,1.39v-7.22c0-.92.74-1.72,1.69-1.72s1.69.77,1.69,1.72l.03,17.84ZM409.66,875.31v-4.56c-.62-.98-1.75-1.6-3.02-1.6-1.92,0-3.58,1.6-3.58,3.93s1.66,3.91,3.58,3.91c1.27,0,2.34-.65,3.02-1.69Z"/>
    <path class="cls-7" d="M434.33,868.03v10.09c0,.95-.74,1.69-1.69,1.69s-1.69-.74-1.69-1.69v-.18c-1.07,1.27-2.46,2.04-4.14,2.04-2.51,0-4.64-1.69-4.64-4.76v-7.19c0-.95.77-1.75,1.66-1.75s1.72.8,1.72,1.75v6.48c0,1.57.86,2.54,2.37,2.54,1.24,0,2.34-.74,3.05-2.07v-6.95c0-.95.77-1.75,1.69-1.75s1.69.8,1.69,1.75Z"/>
    <path class="cls-7" d="M442.74,873.09c0-4.11,3.02-6.95,7.04-6.95,1.45,0,2.84.41,3.67,1.01.53.35.83.86.83,1.36,0,.83-.56,1.51-1.45,1.51-.44,0-.83-.15-1.15-.3-.41-.21-1.07-.44-1.8-.44-1.95,0-3.7,1.39-3.7,3.82s1.66,3.82,3.79,3.82c.83,0,1.3-.18,1.92-.5.33-.15.65-.24.98-.24.83,0,1.45.53,1.45,1.39,0,.71-.41,1.18-1.06,1.54-.89.56-2.16.92-3.49.92-4.05,0-7.01-2.9-7.01-6.92Z"/>
    <path class="cls-7" d="M461.58,873.09c0-4.11,3.02-6.95,7.04-6.95,1.45,0,2.84.41,3.67,1.01.53.35.83.86.83,1.36,0,.83-.56,1.51-1.45,1.51-.44,0-.83-.15-1.15-.3-.41-.21-1.07-.44-1.8-.44-1.95,0-3.7,1.39-3.7,3.82s1.66,3.82,3.79,3.82c.83,0,1.3-.18,1.92-.5.33-.15.65-.24.98-.24.83,0,1.45.53,1.45,1.39,0,.71-.41,1.18-1.06,1.54-.89.56-2.16.92-3.49.92-4.05,0-7.01-2.9-7.01-6.92Z"/>
    <path class="cls-7" d="M481.14,861.7c0-1.06.83-1.89,1.92-1.89s1.92.83,1.92,1.89-.86,1.89-1.92,1.89-1.92-.83-1.92-1.89ZM481.38,878.12v-10.09c0-.95.77-1.69,1.69-1.69s1.69.74,1.69,1.69v10.09c0,.95-.74,1.75-1.69,1.75s-1.69-.8-1.69-1.75Z"/>
    <path class="cls-7" d="M493.15,873.06c0-4.02,3.05-6.89,6.98-6.89s7.01,2.87,7.01,6.89-3.05,6.95-7.01,6.95-6.98-2.93-6.98-6.95ZM503.72,873.06c0-2.54-1.66-3.96-3.58-3.96s-3.55,1.42-3.55,3.96,1.66,3.99,3.55,3.99,3.58-1.48,3.58-3.99ZM499.4,862.67l1.27-2.4c.33-.62.8-.86,1.36-.86.77,0,1.33.53,1.33,1.3,0,.33-.12.68-.38.98l-1.92,2.25c-.36.41-.65.62-1.1.62-.5,0-.92-.36-.92-.92,0-.33.15-.62.35-.98Z"/>
    <path class="cls-7" d="M527.71,870.93v7.19c0,.95-.77,1.75-1.66,1.75s-1.71-.8-1.71-1.75v-6.48c0-1.57-.86-2.55-2.37-2.55-1.24,0-2.34.74-3.05,2.07v6.95c0,.95-.77,1.75-1.69,1.75s-1.69-.8-1.69-1.75v-10.09c0-.95.74-1.69,1.69-1.69s1.69.74,1.69,1.69v.18c1.07-1.27,2.46-2.04,4.14-2.04,2.52,0,4.65,1.69,4.65,4.76Z"/>
    <path class="cls-7" d="M561.03,867.94c0,.3-.06.56-.21.86l-8.02,17.19c-.42.89-1.04,1.18-1.66,1.18-.86,0-1.57-.77-1.57-1.6,0-.3.06-.59.21-.89l2.66-5.44-4.65-10.41c-.15-.33-.21-.59-.21-.86,0-.89.74-1.63,1.69-1.63.59,0,1.24.3,1.66,1.18,1.04,2.4,2.43,5.83,3.37,8.31,1.01-2.66,2.4-5.8,3.49-8.34.41-.89,1.04-1.15,1.66-1.15.83,0,1.57.74,1.57,1.6Z"/>
    <path class="cls-7" d="M598.6,869.72c0,5.33-3.82,10-10.68,10h-4.73c-.98,0-1.72-.77-1.72-1.75v-16.6c0-1.01.74-1.78,1.72-1.78h4.73c6.83,0,10.68,4.59,10.68,10.12ZM594.91,869.72c0-4.05-2.63-6.95-7.1-6.95h-2.78v13.79h2.78c4.41,0,7.1-2.87,7.1-6.83Z"/>
    <path class="cls-7" d="M606.86,861.7c0-1.06.83-1.89,1.92-1.89s1.92.83,1.92,1.89-.86,1.89-1.92,1.89-1.92-.83-1.92-1.89ZM607.1,878.12v-10.09c0-.95.77-1.69,1.69-1.69s1.69.74,1.69,1.69v10.09c0,.95-.74,1.75-1.69,1.75s-1.69-.8-1.69-1.75Z"/>
    <path class="cls-7" d="M619.85,879.01c-.62-.33-1.01-.74-1.01-1.42,0-.89.68-1.36,1.3-1.36.5,0,.95.24,1.51.44.68.3,1.6.56,2.52.56,1.48,0,2.13-.5,2.13-1.18,0-.83-1.01-1.18-2.87-1.78-2.28-.71-4.35-1.6-4.35-4.11,0-2.28,1.77-3.99,5.12-3.99,1.45,0,2.87.36,3.64.68.59.21,1.18.62,1.18,1.42,0,.89-.59,1.42-1.3,1.42-.41,0-.86-.21-1.36-.35-.68-.21-1.42-.38-2.19-.38-1.3,0-1.89.47-1.89,1.12,0,.8.83,1.09,3.05,1.8,2.28.74,4.14,1.6,4.14,3.99s-1.86,4.14-5.21,4.14c-2.01,0-3.64-.59-4.41-1.01Z"/>
    <path class="cls-7" d="M649.82,872.02c0,.5-.09.89-.38,1.24-.33.38-.83.47-1.6.47h-7.46c.35,2.16,2.01,3.31,4.23,3.31.83,0,1.57-.21,2.1-.38.47-.12.74-.21,1.07-.21.77,0,1.33.62,1.33,1.36,0,.56-.33,1.09-.98,1.39-.98.47-2.31.8-3.79.8-4.14,0-7.28-2.75-7.28-6.95,0-3.96,2.81-6.89,6.75-6.89s6.01,2.81,6.01,5.86ZM646.8,871.58c-.03-1.51-1.18-2.78-3.05-2.78-1.72,0-2.9,1.04-3.28,2.78h6.33Z"/>
    <path class="cls-7" d="M670.3,870.93v7.19c0,.95-.77,1.75-1.66,1.75s-1.72-.8-1.72-1.75v-6.48c0-1.57-.86-2.55-2.37-2.55-1.24,0-2.34.74-3.05,2.07v6.95c0,.95-.77,1.75-1.69,1.75s-1.69-.8-1.69-1.75v-10.09c0-.95.74-1.69,1.69-1.69s1.69.74,1.69,1.69v.18c1.07-1.27,2.46-2.04,4.14-2.04,2.51,0,4.64,1.69,4.64,4.76ZM659.7,862.94c0-1.18,1.21-2.9,2.96-2.9,1.83,0,2.63,1.69,3.67,1.69.47,0,.8-.35,1.06-.92.18-.35.41-.71.92-.71s.89.3.89.98c0,1.21-1.24,2.9-2.99,2.9-1.83,0-2.63-1.69-3.67-1.69-.47,0-.77.33-1.07.95-.15.33-.41.68-.89.68-.5,0-.89-.29-.89-.98Z"/>
    <path class="cls-7" d="M678.61,873.06c0-4.02,3.05-6.89,6.98-6.89s7.01,2.87,7.01,6.89-3.05,6.95-7.01,6.95-6.98-2.93-6.98-6.95ZM689.17,873.06c0-2.54-1.66-3.96-3.58-3.96s-3.55,1.42-3.55,3.96,1.66,3.99,3.55,3.99,3.58-1.48,3.58-3.99Z"/>
    <path class="cls-7" d="M727.4,861.19c0,.89-.65,1.57-1.54,1.57h-5.03v15.33c0,.98-.77,1.77-1.78,1.77s-1.78-.8-1.78-1.77v-15.33h-5c-.92,0-1.57-.68-1.57-1.57s.65-1.6,1.54-1.6h13.64c.86,0,1.51.68,1.51,1.6Z"/>
    <path class="cls-7" d="M743.91,872.02c0,.5-.09.89-.38,1.24-.33.38-.83.47-1.6.47h-7.46c.35,2.16,2.01,3.31,4.23,3.31.83,0,1.57-.21,2.1-.38.47-.12.74-.21,1.07-.21.77,0,1.33.62,1.33,1.36,0,.56-.33,1.09-.98,1.39-.98.47-2.31.8-3.79.8-4.14,0-7.28-2.75-7.28-6.95,0-3.96,2.81-6.89,6.75-6.89s6.01,2.81,6.01,5.86ZM740.89,871.58c-.03-1.51-1.18-2.78-3.05-2.78-1.72,0-2.9,1.04-3.28,2.78h6.33Z"/>
    <path class="cls-7" d="M762.85,877.08c.33.35.47.74.47,1.15,0,.89-.74,1.63-1.57,1.63-.5,0-.95-.24-1.27-.65l-3.34-3.99-3.34,4.05c-.3.38-.71.59-1.21.59-.8,0-1.54-.68-1.54-1.54,0-.38.18-.77.5-1.15l3.58-4.14-3.43-3.96c-.33-.35-.44-.77-.44-1.15,0-.86.71-1.57,1.54-1.57.47,0,.92.18,1.24.59l3.23,3.93,3.31-3.96c.3-.35.71-.56,1.21-.56.8,0,1.54.71,1.54,1.51,0,.41-.18.77-.5,1.15l-3.55,4.08,3.58,4Z"/>
    <path class="cls-7" d="M781.31,877.85c0,.62-.38,1.04-1.04,1.36-.59.33-1.72.74-3.23.74-3.11,0-4.62-1.57-4.62-4.2v-6.45h-1.18c-.59,0-1.07-.41-1.07-.98,0-.36.15-.59.53-.95l3.11-2.66c.35-.33.59-.53,1.01-.53.5,0,.98.36.98,1.18v1.07h3.85c.77,0,1.45.62,1.45,1.45s-.68,1.42-1.45,1.42h-3.85v5.89c0,1.12.65,1.75,1.72,1.75.62,0,1.09-.15,1.48-.3.3-.12.59-.21.92-.24.83-.03,1.39.68,1.39,1.45Z"/>
    <path class="cls-7" d="M788.8,861.7c0-1.06.83-1.89,1.92-1.89s1.92.83,1.92,1.89-.86,1.89-1.92,1.89-1.92-.83-1.92-1.89ZM789.03,878.12v-10.09c0-.95.77-1.69,1.69-1.69s1.69.74,1.69,1.69v10.09c0,.95-.74,1.75-1.69,1.75s-1.69-.8-1.69-1.75Z"/>
    <path class="cls-7" d="M801.61,878.12v-17.78c0-.95.77-1.72,1.69-1.72s1.69.77,1.69,1.72v17.78c0,.95-.74,1.75-1.66,1.75s-1.72-.8-1.72-1.75Z"/>
    <path class="cls-7" d="M826.46,878.24c-.62-.41-1.09-.95-1.09-1.75,0-.89.71-1.57,1.57-1.57.53,0,.98.24,1.51.62.98.65,2.25,1.24,3.93,1.24,1.89,0,3.17-1.04,3.17-2.54,0-1.72-1.78-2.34-3.88-3.25-3.28-1.36-5.47-2.84-5.47-6.01s2.49-5.68,6.54-5.68c1.95,0,3.37.38,4.35.92.77.38,1.33.92,1.33,1.69s-.56,1.57-1.45,1.57c-.47,0-.95-.21-1.24-.33-.8-.33-1.72-.68-2.96-.68-1.98,0-3.05,1.07-3.05,2.31,0,1.75,2.01,2.4,4.11,3.28,2.78,1.15,5.24,2.57,5.24,5.98,0,3.79-3.05,5.92-6.86,5.92-1.92,0-3.99-.5-5.74-1.72Z"/>
    <path class="cls-7" d="M846.99,877.73c0-1.21,1.01-2.22,2.19-2.22s2.22,1.01,2.22,2.22-1.01,2.19-2.22,2.19-2.19-1.01-2.19-2.19Z"/>
    <path class="cls-7" d="M876.76,878.18c0,.92-.71,1.66-1.63,1.66-.83,0-1.33-.41-1.63-1.18l-1.42-3.67h-8.73l-1.42,3.7c-.3.74-.89,1.15-1.6,1.15-.95,0-1.63-.74-1.63-1.66,0-.27.06-.53.18-.86l6.42-16.01c.5-1.3,1.45-1.86,2.49-1.86s1.95.59,2.46,1.86l6.3,15.98c.15.38.21.65.21.89ZM870.93,871.99l-3.17-8.17h-.09l-3.17,8.17h6.42Z"/>
  </g>
  <g>
    <text class="cls-9" transform="translate(237.9 830.47)"><tspan class="cls-8" x="0" y="0">P</tspan><tspan class="cls-2" x="105.17" y="0">R</tspan><tspan class="cls-4" x="217.17" y="0">OD</tspan><tspan class="cls-1" x="475.34" y="0">ISA</tspan></text>
    <g>
      <polygon class="cls-5" points="759.54 341.12 759.54 378.53 791.88 397.01 791.88 360.06 759.54 341.12"/>
      <polygon class="cls-5" points="560.89 318.93 473.12 369.76 473.12 332.33 560.89 281.51 696.25 360.06 696.25 397.01 560.89 318.93"/>
      <polygon class="cls-6" points="608.47 676.96 640.81 658.49 505.45 580.42 505.45 423.81 480.97 438.12 473.12 442.29 473.12 598.9 608.47 676.96"/>
      <polygon class="cls-6" points="759.54 396.09 759.54 497.72 624.18 575.79 656.52 594.27 791.88 516.2 791.88 415.03 759.54 396.09"/>
      <polygon class="cls-6" points="711.95 350.81 711.95 507.42 744.29 488.48 744.29 332.33 608.47 254.27 576.14 272.74 711.95 350.81"/>
      <polygon class="cls-6" points="560.89 336.95 425.54 415.03 425.54 571.17 457.87 590.11 457.87 433.51 593.23 355.44 560.89 336.95"/>
      <polygon class="cls-5" points="656.52 649.72 791.88 571.17 791.88 534.22 656.52 612.28 521.16 534.22 521.16 571.17 656.52 649.72"/>
      <polygon class="cls-5" points="457.87 378.53 425.54 397.01 425.54 360.06 457.87 341.12 457.87 378.53"/>
    </g>
  </g>
</svg>