<?xml version="1.0" encoding="UTF-8"?>
<svg id="Layer_1" data-name="Layer 1" xmlns="http://www.w3.org/2000/svg" viewBox="0 0 1200 3878.67">
  <defs>
    <style>
      .cls-1 {
        fill: #272c36;
      }

      .cls-2 {
        fill: #fff;
      }

      .cls-3 {
        fill: #ffd300;
      }

      .cls-3, .cls-4 {
        fill-rule: evenodd;
      }

      .cls-4 {
        fill: #bfc0c2;
      }

      .cls-5 {
        fill: #a7a9ac;
      }
    </style>
  </defs>
  <rect class="cls-2" y="1340" width="1199.83" height="1199.83"/>
  <rect class="cls-2" y="2678.84" width="1199.83" height="1199.83"/>
  <rect class="cls-2" width="1200" height="1200"/>
  <g>
    <path class="cls-5" d="M271.62,667.67c0,4.63-3.29,8.65-9.22,8.65h-3.75v6.62c0,1.3-.96,2.29-2.29,2.29s-2.29-1-2.29-2.29v-21.65c0-1.22.96-2.26,2.26-2.26h6.08c5.93,0,9.22,4.09,9.22,8.65ZM266.91,667.63c0-2.6-1.76-4.51-4.97-4.51h-3.29v9.14h3.25c3.25,0,5.01-1.95,5.01-4.63Z"/>
    <path class="cls-5" d="M293.43,669.66c0,1.3-1,2.22-2.18,2.22-1.76,0-3.56.54-4.9,2.64v8.45c0,1.22-1,2.26-2.18,2.26s-2.18-1.03-2.18-2.26v-13.04c0-1.22.96-2.18,2.18-2.18s2.18.96,2.18,2.18v.96c1.42-2.41,3.14-3.29,4.9-3.29,1.3,0,2.18.88,2.18,2.07Z"/>
    <path class="cls-5" d="M301.62,676.43c0-5.2,3.94-8.91,9.03-8.91s9.07,3.71,9.07,8.91-3.94,8.99-9.07,8.99-9.03-3.79-9.03-8.99ZM315.27,676.43c0-3.29-2.14-5.13-4.63-5.13s-4.59,1.84-4.59,5.13,2.14,5.16,4.59,5.16,4.63-1.91,4.63-5.16Z"/>
    <path class="cls-5" d="M346.99,683.05c0,1.22-.96,2.18-2.14,2.18s-2.14-.96-2.14-2.18v-.11c-1.22,1.49-3.02,2.49-5.01,2.49-4.82,0-8.11-4.13-8.11-8.95s3.29-8.95,8.11-8.95c2.26,0,3.86.84,4.9,1.8v-9.33c0-1.19.96-2.22,2.18-2.22s2.18,1,2.18,2.22l.04,23.07ZM342.59,679.34v-5.89c-.8-1.26-2.26-2.07-3.9-2.07-2.49,0-4.63,2.07-4.63,5.09s2.14,5.05,4.63,5.05c1.65,0,3.02-.84,3.9-2.18Z"/>
    <path class="cls-5" d="M374.5,669.93v13.04c0,1.22-.96,2.18-2.18,2.18s-2.18-.96-2.18-2.18v-.23c-1.38,1.64-3.17,2.64-5.36,2.64-3.25,0-6.01-2.18-6.01-6.16v-9.3c0-1.22,1-2.26,2.14-2.26s2.22,1.03,2.22,2.26v8.38c0,2.03,1.11,3.29,3.06,3.29,1.61,0,3.02-.96,3.94-2.68v-8.99c0-1.22,1-2.26,2.18-2.26s2.18,1.03,2.18,2.26Z"/>
    <path class="cls-5" d="M385.37,676.47c0-5.32,3.9-8.99,9.1-8.99,1.87,0,3.67.54,4.74,1.3.69.46,1.07,1.11,1.07,1.76,0,1.07-.73,1.95-1.87,1.95-.57,0-1.07-.19-1.49-.38-.54-.27-1.38-.57-2.33-.57-2.52,0-4.78,1.8-4.78,4.94s2.14,4.93,4.9,4.93c1.07,0,1.68-.23,2.49-.65.42-.19.84-.31,1.26-.31,1.07,0,1.87.69,1.87,1.8,0,.92-.54,1.53-1.38,1.99-1.15.73-2.79,1.19-4.51,1.19-5.24,0-9.07-3.75-9.07-8.95Z"/>
    <path class="cls-5" d="M409.74,676.47c0-5.32,3.9-8.99,9.1-8.99,1.88,0,3.67.54,4.74,1.3.69.46,1.07,1.11,1.07,1.76,0,1.07-.73,1.95-1.87,1.95-.57,0-1.07-.19-1.49-.38-.54-.27-1.38-.57-2.33-.57-2.53,0-4.78,1.8-4.78,4.94s2.14,4.93,4.9,4.93c1.07,0,1.68-.23,2.49-.65.42-.19.84-.31,1.26-.31,1.07,0,1.88.69,1.88,1.8,0,.92-.54,1.53-1.38,1.99-1.15.73-2.79,1.19-4.51,1.19-5.24,0-9.07-3.75-9.07-8.95Z"/>
    <path class="cls-5" d="M435.03,661.74c0-1.38,1.07-2.45,2.49-2.45s2.49,1.07,2.49,2.45-1.11,2.45-2.49,2.45-2.49-1.07-2.49-2.45ZM435.34,682.97v-13.04c0-1.22.99-2.18,2.18-2.18s2.18.96,2.18,2.18v13.04c0,1.22-.96,2.26-2.18,2.26s-2.18-1.03-2.18-2.26Z"/>
    <path class="cls-5" d="M450.56,676.43c0-5.2,3.94-8.91,9.03-8.91s9.07,3.71,9.07,8.91-3.94,8.99-9.07,8.99-9.03-3.79-9.03-8.99ZM464.22,676.43c0-3.29-2.14-5.13-4.63-5.13s-4.59,1.84-4.59,5.13,2.14,5.16,4.59,5.16,4.63-1.91,4.63-5.16ZM458.64,663l1.65-3.1c.42-.8,1.03-1.11,1.76-1.11.99,0,1.72.69,1.72,1.68,0,.42-.15.88-.5,1.26l-2.49,2.91c-.46.54-.84.8-1.42.8-.65,0-1.19-.46-1.19-1.19,0-.42.19-.8.46-1.26Z"/>
    <path class="cls-5" d="M495.25,673.68v9.3c0,1.22-1,2.26-2.14,2.26s-2.22-1.03-2.22-2.26v-8.38c0-2.03-1.11-3.29-3.06-3.29-1.61,0-3.02.96-3.94,2.68v8.99c0,1.22-1,2.26-2.18,2.26s-2.18-1.03-2.18-2.26v-13.04c0-1.22.96-2.18,2.18-2.18s2.18.96,2.18,2.18v.23c1.38-1.64,3.17-2.64,5.36-2.64,3.25,0,6.01,2.18,6.01,6.16Z"/>
    <path class="cls-5" d="M538.33,669.81c0,.38-.08.73-.27,1.11l-10.37,22.22c-.54,1.15-1.34,1.53-2.14,1.53-1.11,0-2.03-.99-2.03-2.07,0-.38.08-.76.27-1.15l3.44-7.04-6.01-13.46c-.19-.42-.27-.77-.27-1.11,0-1.15.96-2.1,2.18-2.1.76,0,1.61.38,2.14,1.53,1.34,3.1,3.14,7.54,4.36,10.75,1.3-3.44,3.1-7.5,4.51-10.79.54-1.15,1.34-1.49,2.14-1.49,1.07,0,2.03.96,2.03,2.07Z"/>
    <path class="cls-5" d="M586.92,672.11c0,6.89-4.93,12.93-13.81,12.93h-6.12c-1.26,0-2.22-.99-2.22-2.26v-21.46c0-1.3.96-2.29,2.22-2.29h6.12c8.84,0,13.81,5.93,13.81,13.08ZM582.14,672.11c0-5.24-3.4-8.99-9.18-8.99h-3.6v17.83h3.6c5.7,0,9.18-3.71,9.18-8.84Z"/>
    <path class="cls-5" d="M597.6,661.74c0-1.38,1.07-2.45,2.49-2.45s2.49,1.07,2.49,2.45-1.11,2.45-2.49,2.45-2.49-1.07-2.49-2.45ZM597.9,682.97v-13.04c0-1.22,1-2.18,2.18-2.18s2.18.96,2.18,2.18v13.04c0,1.22-.96,2.26-2.18,2.26s-2.18-1.03-2.18-2.26Z"/>
    <path class="cls-5" d="M614.39,684.12c-.8-.42-1.3-.96-1.3-1.84,0-1.15.88-1.76,1.68-1.76.65,0,1.22.31,1.95.57.88.38,2.07.73,3.25.73,1.91,0,2.75-.65,2.75-1.53,0-1.07-1.3-1.53-3.71-2.3-2.95-.92-5.62-2.07-5.62-5.32,0-2.95,2.29-5.16,6.62-5.16,1.87,0,3.71.46,4.71.88.76.27,1.53.8,1.53,1.84,0,1.15-.77,1.84-1.68,1.84-.54,0-1.11-.27-1.76-.46-.88-.27-1.84-.5-2.83-.5-1.68,0-2.45.61-2.45,1.45,0,1.03,1.07,1.42,3.94,2.33,2.95.96,5.36,2.07,5.36,5.17s-2.41,5.36-6.73,5.36c-2.6,0-4.71-.77-5.7-1.3Z"/>
    <path class="cls-5" d="M653.15,675.09c0,.65-.12,1.15-.5,1.61-.42.5-1.07.61-2.07.61h-9.64c.46,2.79,2.6,4.29,5.47,4.29,1.07,0,2.03-.27,2.72-.5.61-.15.96-.27,1.38-.27.99,0,1.72.8,1.72,1.76,0,.73-.42,1.41-1.26,1.8-1.26.61-2.98,1.03-4.9,1.03-5.36,0-9.41-3.56-9.41-8.99,0-5.13,3.63-8.91,8.72-8.91s7.77,3.63,7.77,7.57ZM649.25,674.52c-.04-1.95-1.53-3.6-3.94-3.6-2.22,0-3.75,1.34-4.25,3.6h8.19Z"/>
    <path class="cls-5" d="M679.63,673.68v9.3c0,1.22-.99,2.26-2.14,2.26s-2.22-1.03-2.22-2.26v-8.38c0-2.03-1.11-3.29-3.06-3.29-1.61,0-3.02.96-3.94,2.68v8.99c0,1.22-.99,2.26-2.18,2.26s-2.18-1.03-2.18-2.26v-13.04c0-1.22.96-2.18,2.18-2.18s2.18.96,2.18,2.18v.23c1.38-1.64,3.18-2.64,5.36-2.64,3.25,0,6.01,2.18,6.01,6.16ZM665.93,663.35c0-1.53,1.57-3.75,3.83-3.75,2.37,0,3.4,2.18,4.74,2.18.61,0,1.03-.46,1.38-1.19.23-.46.54-.92,1.19-.92s1.15.38,1.15,1.26c0,1.57-1.61,3.75-3.86,3.75-2.37,0-3.4-2.18-4.74-2.18-.61,0-1,.42-1.38,1.22-.19.42-.54.88-1.15.88-.65,0-1.15-.38-1.15-1.26Z"/>
    <path class="cls-5" d="M690.38,676.43c0-5.2,3.94-8.91,9.03-8.91s9.07,3.71,9.07,8.91-3.94,8.99-9.07,8.99-9.03-3.79-9.03-8.99ZM704.04,676.43c0-3.29-2.14-5.13-4.63-5.13s-4.59,1.84-4.59,5.13,2.14,5.16,4.59,5.16,4.63-1.91,4.63-5.16Z"/>
    <path class="cls-5" d="M753.47,661.09c0,1.15-.84,2.03-1.99,2.03h-6.5v19.82c0,1.26-.99,2.29-2.29,2.29s-2.3-1.03-2.3-2.29v-19.82h-6.46c-1.19,0-2.03-.88-2.03-2.03s.84-2.07,1.99-2.07h17.63c1.11,0,1.95.88,1.95,2.07Z"/>
    <path class="cls-5" d="M774.82,675.09c0,.65-.12,1.15-.5,1.61-.42.5-1.07.61-2.07.61h-9.64c.46,2.79,2.6,4.29,5.47,4.29,1.07,0,2.03-.27,2.71-.5.61-.15.96-.27,1.38-.27.99,0,1.72.8,1.72,1.76,0,.73-.42,1.41-1.26,1.8-1.26.61-2.98,1.03-4.9,1.03-5.36,0-9.41-3.56-9.41-8.99,0-5.13,3.63-8.91,8.72-8.91s7.77,3.63,7.77,7.57ZM770.92,674.52c-.04-1.95-1.53-3.6-3.94-3.6-2.22,0-3.75,1.34-4.25,3.6h8.19Z"/>
    <path class="cls-5" d="M799.31,681.63c.42.46.61.96.61,1.49,0,1.15-.96,2.1-2.03,2.1-.65,0-1.22-.31-1.65-.84l-4.32-5.16-4.32,5.24c-.38.5-.92.77-1.57.77-1.03,0-1.99-.88-1.99-1.99,0-.5.23-1,.65-1.49l4.63-5.36-4.44-5.13c-.42-.46-.57-.99-.57-1.49,0-1.11.92-2.03,1.99-2.03.61,0,1.19.23,1.61.77l4.17,5.09,4.29-5.13c.38-.46.92-.73,1.57-.73,1.03,0,1.99.92,1.99,1.95,0,.54-.23,1-.65,1.49l-4.59,5.28,4.63,5.16Z"/>
    <path class="cls-5" d="M823.18,682.63c0,.8-.5,1.34-1.34,1.76-.77.42-2.22.96-4.17.96-4.02,0-5.97-2.03-5.97-5.43v-8.34h-1.53c-.77,0-1.38-.54-1.38-1.26,0-.46.19-.77.69-1.22l4.02-3.44c.46-.42.77-.69,1.3-.69.65,0,1.26.46,1.26,1.53v1.38h4.97c1,0,1.88.8,1.88,1.87s-.88,1.84-1.88,1.84h-4.97v7.61c0,1.45.84,2.26,2.22,2.26.8,0,1.42-.19,1.91-.38.38-.15.77-.27,1.19-.31,1.07-.04,1.8.88,1.8,1.87Z"/>
    <path class="cls-5" d="M832.86,661.74c0-1.38,1.07-2.45,2.49-2.45s2.49,1.07,2.49,2.45-1.11,2.45-2.49,2.45-2.49-1.07-2.49-2.45ZM833.17,682.97v-13.04c0-1.22.99-2.18,2.18-2.18s2.18.96,2.18,2.18v13.04c0,1.22-.96,2.26-2.18,2.26s-2.18-1.03-2.18-2.26Z"/>
    <path class="cls-5" d="M849.43,682.97v-22.99c0-1.22,1-2.22,2.18-2.22s2.18,1,2.18,2.22v22.99c0,1.22-.95,2.26-2.14,2.26s-2.22-1.03-2.22-2.26Z"/>
    <path class="cls-5" d="M881.57,683.13c-.8-.54-1.41-1.22-1.41-2.26,0-1.15.92-2.03,2.03-2.03.69,0,1.26.31,1.95.8,1.26.84,2.91,1.61,5.09,1.61,2.45,0,4.09-1.34,4.09-3.29,0-2.22-2.29-3.02-5.01-4.21-4.25-1.76-7.08-3.67-7.08-7.77s3.21-7.34,8.46-7.34c2.52,0,4.36.5,5.62,1.19.99.5,1.72,1.19,1.72,2.18s-.73,2.03-1.88,2.03c-.61,0-1.22-.27-1.61-.42-1.03-.42-2.22-.88-3.83-.88-2.56,0-3.94,1.38-3.94,2.98,0,2.26,2.6,3.1,5.32,4.25,3.6,1.49,6.77,3.33,6.77,7.73,0,4.9-3.94,7.65-8.88,7.65-2.49,0-5.16-.65-7.42-2.22Z"/>
    <path class="cls-5" d="M908.12,682.47c0-1.57,1.3-2.87,2.83-2.87s2.87,1.3,2.87,2.87-1.3,2.83-2.87,2.83-2.83-1.3-2.83-2.83Z"/>
    <path class="cls-5" d="M946.61,683.05c0,1.19-.92,2.14-2.1,2.14-1.07,0-1.72-.54-2.1-1.53l-1.84-4.74h-11.29l-1.84,4.78c-.38.96-1.15,1.49-2.07,1.49-1.22,0-2.1-.96-2.1-2.14,0-.34.08-.69.23-1.11l8.3-20.7c.65-1.68,1.87-2.41,3.21-2.41s2.52.77,3.17,2.41l8.15,20.66c.19.5.27.84.27,1.15ZM939.07,675.05l-4.09-10.56h-.12l-4.09,10.56h8.3Z"/>
  </g>
  <g>
    <path class="cls-1" d="M207.43,488.04c15.92,0,28.02,2.82,36.28,8.26,10.08,6.65,15.72,16.33,15.72,30.23,0,29.22-24.79,41.52-46.36,41.72-2.02,0-4.64-.2-6.05-.4l-11.69-3.02v27.41c0,16.93,1.41,17.74,18.95,19.35v7.46h-64.09v-7.46c15.12-1.81,17.13-2.42,17.13-19.35v-76.99c0-16.93-2.02-18.75-17.13-19.75v-7.46h57.24ZM195.34,556.36c2.42,1.21,6.45,2.01,10.68,2.01,9.27,0,24.39-5.44,24.39-32.05,0-22.57-12.29-30.03-25.4-30.03-4.23,0-6.65,1.01-7.86,2.02-1.41,1.21-1.81,3.22-1.81,6.25v51.8Z"/>
    <path class="cls-1" d="M410.4,620.25c-1.21,0-3.63,0-6.05-.2-25.6-1.21-33.05-6.65-39.1-15.12-8.06-11.09-13.91-23.38-20.76-35.47-3.02-5.44-5.84-6.65-12.3-6.65l-4.03-.2v29.43c0,16.33,2.02,17.74,17.13,19.55v7.46h-61.68v-7.46c15.32-1.61,17.13-3.23,17.13-19.55v-77.2c0-15.92-2.02-18.14-17.13-19.35v-7.46h58.45c17.94,0,28.22,2.02,36.48,7.66,8.06,5.44,13.5,14.31,13.5,26.81,0,17.94-11.89,27.41-25.19,32.65,3.02,6.05,10.88,19.15,16.93,28.42,7.05,11.09,11.49,16.53,15.32,20.96,4.64,5.24,6.85,6.85,12.7,8.87l-1.41,6.85ZM333.61,554.35c8.67,0,15.32-1.41,19.75-5.24,6.65-5.64,9.47-13.3,9.47-23.58,0-21.37-12.29-29.02-23.58-29.02-5.44,0-8.06.81-9.27,2.02-1.41,1.21-1.81,3.63-1.81,7.66v48.17h5.44Z"/>
    <path class="cls-1" d="M642.79,488.04c25.8,0,44.75,5.44,57.64,17.54,10.28,9.47,18.14,23.58,18.14,43.94,0,23.18-9.68,40.92-25.2,52.61-14.91,11.29-34.06,16.93-57.04,16.93h-55.43v-7.46c15.32-1.21,17.13-3.02,17.13-19.75v-76.59c0-16.93-2.22-18.54-17.13-19.75v-7.46h61.88ZM626.06,590.43c0,14.31,3.63,19.15,18.34,19.15,27.21,0,42.93-18.95,42.93-57.04,0-19.15-5.24-35.88-14.51-44.54-8.46-8.47-18.95-11.29-32.45-11.29-7.46,0-10.88,1.61-12.09,2.82-1.81,1.81-2.22,5.24-2.22,11.09v79.82Z"/>
    <path class="cls-1" d="M744.18,619.05v-7.46c15.32-1.41,17.13-2.62,17.13-19.55v-76.79c0-16.93-2.02-18.54-17.13-19.75v-7.46h62.28v7.46c-15.12,1.41-17.13,2.82-17.13,19.75v76.79c0,16.73,1.81,17.94,17.13,19.55v7.46h-62.28Z"/>
    <path class="cls-1" d="M906.03,521.29c-4.03-12.9-9.68-27.61-28.22-27.61-11.69,0-19.35,8.26-19.35,19.55s7.46,17.74,25.19,26.6c21.57,10.68,35.27,21.16,35.27,41.12,0,23.78-19.75,41.12-48.57,41.12-12.9,0-24.39-3.43-33.86-6.25-1.21-4.64-4.63-25.6-6.05-35.07l7.86-1.81c4.03,12.7,15.32,34.67,35.07,34.67,12.29,0,19.75-7.66,19.75-20.56,0-11.69-7.26-18.54-24.19-27.61-20.96-11.29-34.67-21.36-34.67-42.33s16.53-37.89,46.76-37.89c13.91,0,24.39,3.02,28.82,3.63.81,7.46,2.22,17.94,3.83,30.64l-7.66,1.81Z"/>
    <path class="cls-1" d="M1006.81,619.05v-7.46c12.7-1.81,12.7-4.03,9.88-12.7-2.02-6.05-5.24-15.12-8.26-23.18h-39.3c-2.22,6.25-5.04,13.91-7.05,20.16-4.23,12.7.6,14.31,16.53,15.72v7.46h-49.79v-7.46c12.7-1.61,15.92-3.43,22.78-20.36l41.92-104.2,9.67-1.81c12.9,35.07,26.61,70.95,39.71,104.61,7.46,18.75,9.27,20.16,22.37,21.77v7.46h-58.45ZM989.07,522.7c-5.85,14.51-11.49,28.02-16.53,42.73h32.05l-15.52-42.73Z"/>
  </g>
  <g>
    <polygon class="cls-3" points="544.58 505.41 544.58 518.6 555.98 525.11 555.98 512.09 544.58 505.41"/>
    <polygon class="cls-3" points="474.56 497.59 443.61 515.51 443.61 502.31 474.56 484.4 522.27 512.09 522.27 525.11 474.56 497.59"/>
    <polygon class="cls-4" points="491.33 623.8 502.73 617.29 455.01 589.77 455.01 534.56 446.38 539.6 443.61 541.07 443.61 596.28 491.33 623.8"/>
    <polygon class="cls-4" points="544.58 524.79 544.58 560.61 496.87 588.13 508.27 594.65 555.98 567.13 555.98 531.46 544.58 524.79"/>
    <polygon class="cls-4" points="527.81 508.83 527.81 564.03 539.21 557.36 539.21 502.31 491.33 474.79 479.93 481.31 527.81 508.83"/>
    <polygon class="cls-4" points="474.56 503.94 426.84 531.46 426.84 586.51 438.24 593.18 438.24 537.98 485.95 510.46 474.56 503.94"/>
    <polygon class="cls-3" points="508.27 614.19 555.98 586.51 555.98 573.48 508.27 601 460.55 573.48 460.55 586.51 508.27 614.19"/>
    <polygon class="cls-3" points="438.24 518.6 426.84 525.11 426.84 512.09 438.24 505.41 438.24 518.6"/>
  </g>
  <g>
    <path class="cls-5" d="M354.61,3546.01c0,3.58-2.54,6.69-7.13,6.69h-2.9v5.12c0,1.01-.74,1.77-1.78,1.77s-1.78-.77-1.78-1.77v-16.75c0-.95.74-1.75,1.75-1.75h4.7c4.59,0,7.13,3.17,7.13,6.69ZM350.97,3545.98c0-2.01-1.36-3.49-3.85-3.49h-2.54v7.07h2.51c2.52,0,3.88-1.51,3.88-3.58Z"/>
    <path class="cls-5" d="M371.47,3547.55c0,1.01-.77,1.72-1.69,1.72-1.36,0-2.75.41-3.79,2.04v6.54c0,.95-.77,1.75-1.69,1.75s-1.69-.8-1.69-1.75v-10.09c0-.95.74-1.69,1.69-1.69s1.69.74,1.69,1.69v.74c1.09-1.86,2.43-2.54,3.79-2.54,1.01,0,1.69.68,1.69,1.6Z"/>
    <path class="cls-5" d="M377.8,3552.79c0-4.02,3.05-6.89,6.98-6.89s7.01,2.87,7.01,6.89-3.05,6.95-7.01,6.95-6.98-2.93-6.98-6.95ZM388.37,3552.79c0-2.54-1.66-3.96-3.58-3.96s-3.55,1.42-3.55,3.96,1.66,3.99,3.55,3.99,3.58-1.48,3.58-3.99Z"/>
    <path class="cls-5" d="M412.89,3557.9c0,.95-.74,1.69-1.66,1.69s-1.66-.74-1.66-1.69v-.09c-.95,1.15-2.34,1.92-3.88,1.92-3.73,0-6.27-3.2-6.27-6.92s2.54-6.92,6.27-6.92c1.75,0,2.99.65,3.79,1.39v-7.22c0-.92.74-1.72,1.69-1.72s1.69.77,1.69,1.72l.03,17.84ZM409.49,3555.03v-4.56c-.62-.98-1.75-1.6-3.02-1.6-1.92,0-3.58,1.6-3.58,3.93s1.66,3.91,3.58,3.91c1.27,0,2.34-.65,3.02-1.69Z"/>
    <path class="cls-5" d="M434.17,3547.76v10.09c0,.95-.74,1.69-1.69,1.69s-1.69-.74-1.69-1.69v-.18c-1.07,1.27-2.46,2.04-4.14,2.04-2.51,0-4.64-1.69-4.64-4.76v-7.19c0-.95.77-1.75,1.66-1.75s1.72.8,1.72,1.75v6.48c0,1.57.86,2.54,2.37,2.54,1.24,0,2.34-.74,3.05-2.07v-6.95c0-.95.77-1.75,1.69-1.75s1.69.8,1.69,1.75Z"/>
    <path class="cls-5" d="M442.57,3552.81c0-4.11,3.02-6.95,7.04-6.95,1.45,0,2.84.41,3.67,1.01.53.35.83.86.83,1.36,0,.83-.56,1.51-1.45,1.51-.44,0-.83-.15-1.15-.3-.41-.21-1.07-.44-1.8-.44-1.95,0-3.7,1.39-3.7,3.82s1.66,3.82,3.79,3.82c.83,0,1.3-.18,1.92-.5.33-.15.65-.24.98-.24.83,0,1.45.53,1.45,1.39,0,.71-.41,1.18-1.06,1.54-.89.56-2.16.92-3.49.92-4.05,0-7.01-2.9-7.01-6.92Z"/>
    <path class="cls-5" d="M461.42,3552.81c0-4.11,3.02-6.95,7.04-6.95,1.45,0,2.84.41,3.67,1.01.53.35.83.86.83,1.36,0,.83-.56,1.51-1.45,1.51-.44,0-.83-.15-1.15-.3-.41-.21-1.07-.44-1.8-.44-1.95,0-3.7,1.39-3.7,3.82s1.66,3.82,3.79,3.82c.83,0,1.3-.18,1.92-.5.33-.15.65-.24.98-.24.83,0,1.45.53,1.45,1.39,0,.71-.41,1.18-1.06,1.54-.89.56-2.16.92-3.49.92-4.05,0-7.01-2.9-7.01-6.92Z"/>
    <path class="cls-5" d="M480.98,3541.42c0-1.06.83-1.89,1.92-1.89s1.92.83,1.92,1.89-.86,1.89-1.92,1.89-1.92-.83-1.92-1.89ZM481.21,3557.84v-10.09c0-.95.77-1.69,1.69-1.69s1.69.74,1.69,1.69v10.09c0,.95-.74,1.75-1.69,1.75s-1.69-.8-1.69-1.75Z"/>
    <path class="cls-5" d="M492.99,3552.79c0-4.02,3.05-6.89,6.98-6.89s7.01,2.87,7.01,6.89-3.05,6.95-7.01,6.95-6.98-2.93-6.98-6.95ZM503.55,3552.79c0-2.54-1.66-3.96-3.58-3.96s-3.55,1.42-3.55,3.96,1.66,3.99,3.55,3.99,3.58-1.48,3.58-3.99ZM499.23,3542.4l1.27-2.4c.33-.62.8-.86,1.36-.86.77,0,1.33.53,1.33,1.3,0,.33-.12.68-.38.98l-1.92,2.25c-.36.41-.65.62-1.1.62-.5,0-.92-.36-.92-.92,0-.33.15-.62.35-.98Z"/>
    <path class="cls-5" d="M527.55,3550.66v7.19c0,.95-.77,1.75-1.66,1.75s-1.71-.8-1.71-1.75v-6.48c0-1.57-.86-2.55-2.37-2.55-1.24,0-2.34.74-3.05,2.07v6.95c0,.95-.77,1.75-1.69,1.75s-1.69-.8-1.69-1.75v-10.09c0-.95.74-1.69,1.69-1.69s1.69.74,1.69,1.69v.18c1.07-1.27,2.46-2.04,4.14-2.04,2.52,0,4.65,1.69,4.65,4.76Z"/>
    <path class="cls-5" d="M560.86,3547.67c0,.3-.06.56-.21.86l-8.02,17.19c-.42.89-1.04,1.18-1.66,1.18-.86,0-1.57-.77-1.57-1.6,0-.3.06-.59.21-.89l2.66-5.44-4.65-10.41c-.15-.33-.21-.59-.21-.86,0-.89.74-1.63,1.69-1.63.59,0,1.24.3,1.66,1.18,1.04,2.4,2.43,5.83,3.37,8.31,1.01-2.66,2.4-5.8,3.49-8.34.41-.89,1.04-1.15,1.66-1.15.83,0,1.57.74,1.57,1.6Z"/>
    <path class="cls-5" d="M598.44,3549.44c0,5.33-3.82,10-10.68,10h-4.73c-.98,0-1.72-.77-1.72-1.75v-16.6c0-1.01.74-1.78,1.72-1.78h4.73c6.83,0,10.68,4.59,10.68,10.12ZM594.74,3549.44c0-4.05-2.63-6.95-7.1-6.95h-2.78v13.79h2.78c4.41,0,7.1-2.87,7.1-6.83Z"/>
    <path class="cls-5" d="M606.69,3541.42c0-1.06.83-1.89,1.92-1.89s1.92.83,1.92,1.89-.86,1.89-1.92,1.89-1.92-.83-1.92-1.89ZM606.93,3557.84v-10.09c0-.95.77-1.69,1.69-1.69s1.69.74,1.69,1.69v10.09c0,.95-.74,1.75-1.69,1.75s-1.69-.8-1.69-1.75Z"/>
    <path class="cls-5" d="M619.68,3558.73c-.62-.33-1.01-.74-1.01-1.42,0-.89.68-1.36,1.3-1.36.5,0,.95.24,1.51.44.68.3,1.6.56,2.52.56,1.48,0,2.13-.5,2.13-1.18,0-.83-1.01-1.18-2.87-1.78-2.28-.71-4.35-1.6-4.35-4.11,0-2.28,1.77-3.99,5.12-3.99,1.45,0,2.87.36,3.64.68.59.21,1.18.62,1.18,1.42,0,.89-.59,1.42-1.3,1.42-.41,0-.86-.21-1.36-.35-.68-.21-1.42-.38-2.19-.38-1.3,0-1.89.47-1.89,1.12,0,.8.83,1.09,3.05,1.8,2.28.74,4.14,1.6,4.14,3.99s-1.86,4.14-5.21,4.14c-2.01,0-3.64-.59-4.41-1.01Z"/>
    <path class="cls-5" d="M649.66,3551.75c0,.5-.09.89-.38,1.24-.33.38-.83.47-1.6.47h-7.46c.35,2.16,2.01,3.31,4.23,3.31.83,0,1.57-.21,2.1-.38.47-.12.74-.21,1.07-.21.77,0,1.33.62,1.33,1.36,0,.56-.33,1.09-.98,1.39-.98.47-2.31.8-3.79.8-4.14,0-7.28-2.75-7.28-6.95,0-3.96,2.81-6.89,6.75-6.89s6.01,2.81,6.01,5.86ZM646.64,3551.31c-.03-1.51-1.18-2.78-3.05-2.78-1.72,0-2.9,1.04-3.28,2.78h6.33Z"/>
    <path class="cls-5" d="M670.13,3550.66v7.19c0,.95-.77,1.75-1.66,1.75s-1.72-.8-1.72-1.75v-6.48c0-1.57-.86-2.55-2.37-2.55-1.24,0-2.34.74-3.05,2.07v6.95c0,.95-.77,1.75-1.69,1.75s-1.69-.8-1.69-1.75v-10.09c0-.95.74-1.69,1.69-1.69s1.69.74,1.69,1.69v.18c1.07-1.27,2.46-2.04,4.14-2.04,2.51,0,4.64,1.69,4.64,4.76ZM659.54,3542.67c0-1.18,1.21-2.9,2.96-2.9,1.83,0,2.63,1.69,3.67,1.69.47,0,.8-.35,1.06-.92.18-.35.41-.71.92-.71s.89.3.89.98c0,1.21-1.24,2.9-2.99,2.9-1.83,0-2.63-1.69-3.67-1.69-.47,0-.77.33-1.07.95-.15.33-.41.68-.89.68-.5,0-.89-.29-.89-.98Z"/>
    <path class="cls-5" d="M678.45,3552.79c0-4.02,3.05-6.89,6.98-6.89s7.01,2.87,7.01,6.89-3.05,6.95-7.01,6.95-6.98-2.93-6.98-6.95ZM689.01,3552.79c0-2.54-1.66-3.96-3.58-3.96s-3.55,1.42-3.55,3.96,1.66,3.99,3.55,3.99,3.58-1.48,3.58-3.99Z"/>
    <path class="cls-5" d="M727.23,3540.92c0,.89-.65,1.57-1.54,1.57h-5.03v15.33c0,.98-.77,1.77-1.78,1.77s-1.78-.8-1.78-1.77v-15.33h-5c-.92,0-1.57-.68-1.57-1.57s.65-1.6,1.54-1.6h13.64c.86,0,1.51.68,1.51,1.6Z"/>
    <path class="cls-5" d="M743.75,3551.75c0,.5-.09.89-.38,1.24-.33.38-.83.47-1.6.47h-7.46c.35,2.16,2.01,3.31,4.23,3.31.83,0,1.57-.21,2.1-.38.47-.12.74-.21,1.07-.21.77,0,1.33.62,1.33,1.36,0,.56-.33,1.09-.98,1.39-.98.47-2.31.8-3.79.8-4.14,0-7.28-2.75-7.28-6.95,0-3.96,2.81-6.89,6.75-6.89s6.01,2.81,6.01,5.86ZM740.73,3551.31c-.03-1.51-1.18-2.78-3.05-2.78-1.72,0-2.9,1.04-3.28,2.78h6.33Z"/>
    <path class="cls-5" d="M762.68,3556.81c.33.35.47.74.47,1.15,0,.89-.74,1.63-1.57,1.63-.5,0-.95-.24-1.27-.65l-3.34-3.99-3.34,4.05c-.3.38-.71.59-1.21.59-.8,0-1.54-.68-1.54-1.54,0-.38.18-.77.5-1.15l3.58-4.14-3.43-3.96c-.33-.35-.44-.77-.44-1.15,0-.86.71-1.57,1.54-1.57.47,0,.92.18,1.24.59l3.23,3.93,3.31-3.96c.3-.35.71-.56,1.21-.56.8,0,1.54.71,1.54,1.51,0,.41-.18.77-.5,1.15l-3.55,4.08,3.58,4Z"/>
    <path class="cls-5" d="M781.14,3557.58c0,.62-.38,1.04-1.04,1.36-.59.33-1.72.74-3.23.74-3.11,0-4.62-1.57-4.62-4.2v-6.45h-1.18c-.59,0-1.07-.41-1.07-.98,0-.36.15-.59.53-.95l3.11-2.66c.35-.33.59-.53,1.01-.53.5,0,.98.36.98,1.18v1.07h3.85c.77,0,1.45.62,1.45,1.45s-.68,1.42-1.45,1.42h-3.85v5.89c0,1.12.65,1.75,1.72,1.75.62,0,1.09-.15,1.48-.3.3-.12.59-.21.92-.24.83-.03,1.39.68,1.39,1.45Z"/>
    <path class="cls-5" d="M788.63,3541.42c0-1.06.83-1.89,1.92-1.89s1.92.83,1.92,1.89-.86,1.89-1.92,1.89-1.92-.83-1.92-1.89ZM788.87,3557.84v-10.09c0-.95.77-1.69,1.69-1.69s1.69.74,1.69,1.69v10.09c0,.95-.74,1.75-1.69,1.75s-1.69-.8-1.69-1.75Z"/>
    <path class="cls-5" d="M801.44,3557.84v-17.78c0-.95.77-1.72,1.69-1.72s1.69.77,1.69,1.72v17.78c0,.95-.74,1.75-1.66,1.75s-1.72-.8-1.72-1.75Z"/>
    <path class="cls-5" d="M826.3,3557.96c-.62-.41-1.09-.95-1.09-1.75,0-.89.71-1.57,1.57-1.57.53,0,.98.24,1.51.62.98.65,2.25,1.24,3.93,1.24,1.89,0,3.17-1.04,3.17-2.54,0-1.72-1.78-2.34-3.88-3.25-3.28-1.36-5.47-2.84-5.47-6.01s2.49-5.68,6.54-5.68c1.95,0,3.37.38,4.35.92.77.38,1.33.92,1.33,1.69s-.56,1.57-1.45,1.57c-.47,0-.95-.21-1.24-.33-.8-.33-1.72-.68-2.96-.68-1.98,0-3.05,1.07-3.05,2.31,0,1.75,2.01,2.4,4.11,3.28,2.78,1.15,5.24,2.57,5.24,5.98,0,3.79-3.05,5.92-6.86,5.92-1.92,0-3.99-.5-5.74-1.72Z"/>
    <path class="cls-5" d="M846.83,3557.46c0-1.21,1.01-2.22,2.19-2.22s2.22,1.01,2.22,2.22-1.01,2.19-2.22,2.19-2.19-1.01-2.19-2.19Z"/>
    <path class="cls-5" d="M876.59,3557.9c0,.92-.71,1.66-1.63,1.66-.83,0-1.33-.41-1.63-1.18l-1.42-3.67h-8.73l-1.42,3.7c-.3.74-.89,1.15-1.6,1.15-.95,0-1.63-.74-1.63-1.66,0-.27.06-.53.18-.86l6.42-16.01c.5-1.3,1.45-1.86,2.49-1.86s1.95.59,2.46,1.86l6.3,15.98c.15.38.21.65.21.89ZM870.77,3551.72l-3.17-8.17h-.09l-3.17,8.17h6.42Z"/>
  </g>
  <g>
    <g>
      <path class="cls-1" d="M289.21,3406.93c12.55,0,22.08,2.22,28.6,6.51,7.94,5.24,12.39,12.87,12.39,23.83,0,23.04-19.54,32.73-36.54,32.89-1.59,0-3.65-.16-4.77-.32l-9.21-2.38v21.61c0,13.34,1.11,13.98,14.93,15.25v5.88h-50.52v-5.88c11.92-1.43,13.5-1.91,13.5-15.25v-60.69c0-13.35-1.59-14.78-13.5-15.57v-5.88h45.12ZM279.68,3460.79c1.91.95,5.08,1.59,8.42,1.59,7.31,0,19.22-4.29,19.22-25.26,0-17.79-9.69-23.67-20.02-23.67-3.34,0-5.24.79-6.2,1.59-1.11.95-1.43,2.54-1.43,4.93v40.83Z"/>
      <path class="cls-1" d="M449.19,3511.15c-.95,0-2.86,0-4.77-.16-20.18-.95-26.06-5.24-30.82-11.92-6.36-8.74-10.96-18.43-16.36-27.96-2.38-4.29-4.61-5.24-9.69-5.24l-3.18-.16v23.2c0,12.87,1.59,13.98,13.5,15.41v5.88h-48.62v-5.88c12.07-1.27,13.5-2.54,13.5-15.41v-60.85c0-12.55-1.59-14.3-13.5-15.25v-5.88h46.07c14.14,0,22.24,1.59,28.76,6.04,6.36,4.29,10.64,11.28,10.64,21.13,0,14.14-9.37,21.61-19.86,25.74,2.38,4.77,8.58,15.09,13.35,22.4,5.56,8.74,9.06,13.03,12.07,16.52,3.65,4.13,5.4,5.4,10.01,6.99l-1.11,5.4ZM388.66,3459.2c6.83,0,12.07-1.11,15.57-4.13,5.24-4.45,7.47-10.49,7.47-18.59,0-16.84-9.69-22.88-18.59-22.88-4.29,0-6.36.64-7.31,1.59-1.11.95-1.43,2.86-1.43,6.04v37.97h4.29Z"/>
      <path class="cls-1" d="M517.19,3404.7c29.39,0,53.38,21.45,53.38,52.75,0,33.84-24.15,55.13-54.18,55.13-31.77,0-54.81-23.2-54.81-53.86,0-27.17,19.38-54.02,55.61-54.02ZM514.81,3411.69c-16.21,0-28.12,15.89-28.12,44.01s10.64,49.89,32.09,49.89c15.09,0,26.85-14.62,26.85-43.69,0-31.46-12.39-50.2-30.82-50.2Z"/>
      <path class="cls-1" d="M639.52,3406.93c20.34,0,35.27,4.29,45.44,13.82,8.1,7.47,14.3,18.59,14.3,34.63,0,18.27-7.63,32.25-19.86,41.47-11.76,8.9-26.85,13.35-44.96,13.35h-43.69v-5.88c12.07-.95,13.5-2.38,13.5-15.57v-60.37c0-13.35-1.75-14.62-13.5-15.57v-5.88h48.77ZM626.33,3487.63c0,11.28,2.86,15.09,14.46,15.09,21.45,0,33.84-14.93,33.84-44.96,0-15.09-4.13-28.28-11.44-35.11-6.67-6.67-14.93-8.9-25.58-8.9-5.88,0-8.58,1.27-9.53,2.22-1.43,1.43-1.75,4.13-1.75,8.74v62.91Z"/>
      <path class="cls-1" d="M719.43,3510.2v-5.88c12.07-1.11,13.5-2.07,13.5-15.41v-60.53c0-13.35-1.59-14.62-13.5-15.57v-5.88h49.09v5.88c-11.92,1.11-13.5,2.22-13.5,15.57v60.53c0,13.19,1.43,14.14,13.5,15.41v5.88h-49.09Z"/>
      <path class="cls-1" d="M847.01,3433.14c-3.18-10.17-7.63-21.77-22.24-21.77-9.21,0-15.25,6.51-15.25,15.41s5.88,13.98,19.86,20.97c17,8.42,27.8,16.68,27.8,32.41,0,18.75-15.57,32.41-38.29,32.41-10.17,0-19.22-2.7-26.69-4.92-.95-3.65-3.65-20.18-4.77-27.64l6.2-1.43c3.18,10.01,12.07,27.33,27.64,27.33,9.69,0,15.57-6.04,15.57-16.21,0-9.21-5.72-14.62-19.07-21.77-16.52-8.9-27.33-16.84-27.33-33.36s13.03-29.87,36.86-29.87c10.96,0,19.22,2.38,22.72,2.86.63,5.88,1.75,14.14,3.02,24.15l-6.04,1.43Z"/>
      <path class="cls-1" d="M926.44,3510.2v-5.88c10.01-1.43,10.01-3.18,7.79-10.01-1.59-4.77-4.13-11.92-6.51-18.27h-30.98c-1.75,4.93-3.97,10.96-5.56,15.89-3.34,10.01.48,11.28,13.03,12.39v5.88h-39.24v-5.88c10.01-1.27,12.55-2.7,17.95-16.05l33.05-82.14,7.63-1.43c10.17,27.64,20.97,55.92,31.3,82.46,5.88,14.78,7.31,15.89,17.64,17.16v5.88h-46.07ZM912.46,3434.25c-4.61,11.44-9.06,22.08-13.03,33.68h25.26l-12.23-33.68Z"/>
    </g>
    <g>
      <polygon class="cls-3" points="759.38 3020.84 759.38 3058.26 791.72 3076.74 791.72 3039.78 759.38 3020.84"/>
      <polygon class="cls-3" points="560.73 2998.66 472.95 3049.49 472.95 3012.06 560.73 2961.24 696.08 3039.78 696.08 3076.74 560.73 2998.66"/>
      <polygon class="cls-4" points="608.31 3356.69 640.65 3338.21 505.28 3260.15 505.28 3103.54 480.81 3117.85 472.95 3122.02 472.95 3278.63 608.31 3356.69"/>
      <polygon class="cls-4" points="759.38 3075.82 759.38 3177.45 624.02 3255.52 656.35 3273.99 791.72 3195.93 791.72 3094.76 759.38 3075.82"/>
      <polygon class="cls-4" points="711.79 3030.54 711.79 3187.14 744.13 3168.2 744.13 3012.06 608.31 2933.99 575.97 2952.47 711.79 3030.54"/>
      <polygon class="cls-4" points="560.73 3016.67 425.37 3094.76 425.37 3250.9 457.71 3269.84 457.71 3113.23 593.06 3035.17 560.73 3016.67"/>
      <polygon class="cls-3" points="656.35 3329.44 791.72 3250.9 791.72 3213.94 656.35 3292.01 520.99 3213.94 520.99 3250.9 656.35 3329.44"/>
      <polygon class="cls-3" points="457.71 3058.26 425.37 3076.74 425.37 3039.78 457.71 3020.84 457.71 3058.26"/>
    </g>
  </g>
  <g>
    <polygon class="cls-3" points="822.23 1741.17 822.23 1795.49 869.18 1822.32 869.18 1768.66 822.23 1741.17"/>
    <polygon class="cls-3" points="533.83 1708.96 406.4 1782.76 406.4 1728.41 533.83 1654.63 730.34 1768.66 730.34 1822.32 533.83 1708.96"/>
    <polygon class="cls-4" points="602.9 2228.76 649.86 2201.93 453.34 2088.59 453.34 1861.23 417.8 1882 406.4 1888.05 406.4 2115.42 602.9 2228.76"/>
    <polygon class="cls-4" points="822.23 1820.98 822.23 1968.53 625.71 2081.87 672.66 2108.7 869.18 1995.36 869.18 1848.47 822.23 1820.98"/>
    <polygon class="cls-4" points="753.14 1755.24 753.14 1982.61 800.09 1955.11 800.09 1728.41 602.9 1615.08 555.96 1641.9 753.14 1755.24"/>
    <polygon class="cls-4" points="533.83 1735.11 337.32 1848.47 337.32 2075.17 384.26 2102.67 384.26 1875.3 580.77 1761.96 533.83 1735.11"/>
    <polygon class="cls-3" points="672.66 2189.2 869.18 2075.17 869.18 2021.51 672.66 2134.85 476.14 2021.51 476.14 2075.17 672.66 2189.2"/>
    <polygon class="cls-3" points="384.26 1795.49 337.32 1822.32 337.32 1768.66 384.26 1741.17 384.26 1795.49"/>
  </g>
</svg>