<?xml version="1.0" encoding="UTF-8"?>
<svg id="Capa_2" data-name="Capa 2" xmlns="http://www.w3.org/2000/svg" viewBox="0 0 531.86 613.68">
  <defs>
    <style>
      .cls-1 {
        fill: #ffd300;
      }

      .cls-1, .cls-2 {
        fill-rule: evenodd;
      }

      .cls-2 {
        fill: #bfc0c2;
      }
    </style>
  </defs>
  <g id="Layer_1" data-name="Layer 1">
    <g>
      <polygon class="cls-1" points="484.91 126.09 484.91 180.41 531.86 207.24 531.86 153.59 484.91 126.09"/>
      <polygon class="cls-1" points="196.51 93.88 69.07 167.68 69.07 113.34 196.51 39.56 393.01 153.59 393.01 207.24 196.51 93.88"/>
      <polygon class="cls-2" points="265.58 613.68 312.53 586.85 116.01 473.52 116.01 246.15 80.48 266.92 69.07 272.98 69.07 500.34 265.58 613.68"/>
      <polygon class="cls-2" points="484.91 205.9 484.91 353.46 288.39 466.79 335.34 493.62 531.86 380.29 531.86 233.4 484.91 205.9"/>
      <polygon class="cls-2" points="415.82 140.16 415.82 367.53 462.77 340.03 462.77 113.34 265.58 0 218.64 26.83 415.82 140.16"/>
      <polygon class="cls-2" points="196.51 120.04 0 233.4 0 460.09 46.94 487.59 46.94 260.22 243.45 146.89 196.51 120.04"/>
      <polygon class="cls-1" points="335.34 574.12 531.86 460.09 531.86 406.44 335.34 519.78 138.82 406.44 138.82 460.09 335.34 574.12"/>
      <polygon class="cls-1" points="46.94 180.41 0 207.24 0 153.59 46.94 126.09 46.94 180.41"/>
    </g>
  </g>
</svg>