<?xml version="1.0" encoding="UTF-8"?>
<svg id="Capa_2" data-name="Capa 2" xmlns="http://www.w3.org/2000/svg" viewBox="0 0 1199.83 1199.83">
  <defs>
    <style>
      .cls-1 {
        fill: #fff;
      }

      .cls-2 {
        fill: #ffd300;
      }

      .cls-2, .cls-3 {
        fill-rule: evenodd;
      }

      .cls-3 {
        fill: #bfc0c2;
      }
    </style>
  </defs>
  <g id="Layer_1" data-name="Layer 1">
    <rect class="cls-1" width="1199.83" height="1199.83"/>
    <g>
      <polygon class="cls-2" points="822.23 401.17 822.23 455.49 869.18 482.32 869.18 428.67 822.23 401.17"/>
      <polygon class="cls-2" points="533.83 368.96 406.4 442.76 406.4 388.42 533.83 314.64 730.34 428.67 730.34 482.32 533.83 368.96"/>
      <polygon class="cls-3" points="602.9 888.76 649.86 861.93 453.34 748.6 453.34 521.23 417.8 542 406.4 548.06 406.4 775.42 602.9 888.76"/>
      <polygon class="cls-3" points="822.23 480.98 822.23 628.54 625.71 741.87 672.66 768.7 869.18 655.36 869.18 508.48 822.23 480.98"/>
      <polygon class="cls-3" points="753.14 415.24 753.14 642.61 800.09 615.11 800.09 388.42 602.9 275.08 555.96 301.9 753.14 415.24"/>
      <polygon class="cls-3" points="533.83 395.12 337.32 508.48 337.32 735.17 384.26 762.67 384.26 535.3 580.77 421.97 533.83 395.12"/>
      <polygon class="cls-2" points="672.66 849.2 869.18 735.17 869.18 681.52 672.66 794.86 476.14 681.52 476.14 735.17 672.66 849.2"/>
      <polygon class="cls-2" points="384.26 455.49 337.32 482.32 337.32 428.67 384.26 401.17 384.26 455.49"/>
    </g>
  </g>
</svg>